<?xml version="1.0" standalone="no"?>
<!DOCTYPE svg PUBLIC "-//W3C//DTD SVG 20010904//EN"
 "http://www.w3.org/TR/2001/REC-SVG-20010904/DTD/svg10.dtd">
<svg version="1.0" xmlns="http://www.w3.org/2000/svg"
 width="281.000000pt" height="141.000000pt" viewBox="0 0 281.000000 141.000000"
 preserveAspectRatio="xMidYMid meet">

<g transform="translate(0.000000,141.000000) scale(0.100000,-0.100000)"
fill="#000000" stroke="none">
<path d="M2122 1385 c-49 -21 -88 -52 -114 -88 l-23 -32 25 18 c118 84 112 86
216 -88 l86 -145 -55 -59 c-57 -62 -104 -146 -112 -203 l-5 -33 14 36 c38 97
94 166 177 219 27 18 49 33 49 35 0 2 -27 45 -59 96 -33 52 -83 131 -111 177
-28 45 -52 82 -53 82 -1 -1 -17 -7 -35 -15z"/>
<path d="M2248 1348 c-34 -12 -36 -26 -4 -38 15 -5 51 -54 105 -145 44 -75 81
-139 81 -143 0 -4 -20 -15 -44 -25 -110 -45 -233 -169 -203 -206 8 -9 8 -12 1
-8 -7 4 -15 0 -18 -9 -10 -26 -2 -26 28 -3 15 12 25 24 22 27 -3 3 -1 11 5 19
16 19 -1 16 -25 -4 -20 -18 -20 -18 -5 7 39 62 137 123 300 189 13 5 -4 38
-95 178 -61 95 -113 172 -116 172 -3 0 -17 -5 -32 -11z"/>
<path d="M415 1083 c-21 -54 -60 -154 -86 -222 -27 -68 -49 -127 -49 -132 0
-5 30 -9 68 -9 l67 0 34 90 c18 50 36 90 40 90 4 0 31 -40 60 -90 l53 -90 89
0 c49 0 89 2 89 4 0 2 -34 54 -76 116 -42 62 -72 115 -67 119 47 32 293 213
293 217 0 2 -35 4 -78 4 l-77 0 -118 -86 c-65 -48 -120 -85 -122 -82 -3 2 9
39 25 82 17 42 30 79 30 82 0 2 -31 4 -68 4 l-69 0 -38 -97z"/>
<path d="M1010 1134 c-11 -26 -20 -48 -20 -50 0 -2 30 -4 68 -4 l67 0 18 43
c9 23 17 46 17 50 0 4 -29 7 -65 7 l-64 0 -21 -46z"/>
<path d="M1213 1125 l-21 -55 54 0 c30 0 54 -5 54 -10 0 -10 -73 -203 -110
-290 l-19 -45 56 -3 c30 -2 58 -1 60 2 3 3 36 81 72 173 l67 168 57 3 c54 3
58 5 71 36 35 83 49 76 -147 76 l-174 0 -20 -55z"/>
<path d="M1618 1137 c-10 -23 -18 -46 -18 -50 0 -4 67 -7 150 -7 l149 0 14 28
c8 15 18 37 21 50 l7 22 -153 0 -153 0 -17 -43z"/>
<path d="M947 978 c-9 -24 -34 -90 -56 -148 -23 -58 -41 -106 -41 -107 0 -2
31 -3 69 -3 l68 0 33 83 c70 180 80 206 80 211 0 3 -31 6 -69 6 l-69 0 -15
-42z"/>
<path d="M1551 978 c-5 -13 -29 -76 -54 -140 l-45 -118 154 0 154 0 10 25 c5
14 13 37 16 50 l6 25 -92 0 c-84 0 -91 2 -85 18 4 9 9 25 12 34 4 15 21 18
101 20 l96 3 23 53 23 52 -155 0 c-152 0 -156 -1 -164 -22z"/>
<path d="M2461 981 c-7 -5 -10 -14 -7 -20 4 -6 -1 -14 -11 -17 -69 -24 -166
-69 -188 -86 -34 -27 -24 -36 12 -11 40 28 150 70 206 78 55 8 63 16 45 45
-14 21 -34 25 -57 11z"/>
<path d="M2388 885 c-71 -22 -174 -72 -165 -81 2 -2 24 5 49 15 36 17 193 51
230 51 5 0 4 9 -2 20 -13 25 -16 24 -112 -5z"/>
<path d="M260 514 c0 -73 24 -70 28 4 2 42 0 52 -12 52 -13 0 -16 -12 -16 -56z"/>
<path d="M310 540 c-10 -25 -10 -34 4 -55 16 -24 36 -34 36 -17 0 4 -7 17 -15
28 -12 19 -12 24 0 40 18 24 19 34 1 34 -7 0 -19 -13 -26 -30z"/>
<path d="M367 563 c-4 -3 -7 -23 -7 -44 0 -28 5 -41 19 -49 33 -17 51 -12 51
15 0 14 -4 25 -10 25 -5 0 -10 -7 -10 -15 0 -9 -6 -12 -16 -8 -24 9 -14 57 14
61 12 2 22 8 22 13 0 10 -53 12 -63 2z"/>
<path d="M450 560 c0 -5 5 -10 10 -10 6 0 10 5 10 10 0 6 -4 10 -10 10 -5 0
-10 -4 -10 -10z"/>
<path d="M490 555 c-15 -17 -6 -33 26 -45 31 -12 31 -30 -1 -30 -14 0 -25 -4
-25 -10 0 -16 56 -12 70 5 17 20 6 43 -25 51 -32 8 -33 24 0 24 14 0 25 5 25
10 0 15 -56 12 -70 -5z"/>
<path d="M580 534 c0 -48 16 -74 45 -74 14 0 25 5 25 10 0 6 -9 10 -20 10 -17
0 -20 7 -20 45 0 33 -4 45 -15 45 -11 0 -15 -11 -15 -36z"/>
<path d="M700 515 c0 -30 5 -55 10 -55 6 0 10 25 10 55 0 30 -4 55 -10 55 -5
0 -10 -25 -10 -55z"/>
<path d="M730 515 c0 -30 5 -55 10 -55 6 0 10 11 10 25 0 32 13 32 34 0 23
-35 36 -23 36 36 0 37 -4 49 -15 49 -10 0 -15 -10 -15 -27 l-1 -28 -17 28
c-27 44 -42 34 -42 -28z"/>
<path d="M834 555 c-9 -23 2 -43 26 -47 28 -4 30 -22 3 -26 -28 -4 -31 -22 -4
-22 34 0 51 12 51 36 0 17 -7 25 -25 30 -30 7 -33 24 -6 24 11 0 23 5 26 10 4
6 -8 10 -30 10 -22 0 -38 -6 -41 -15z"/>
<path d="M920 560 c0 -5 4 -10 9 -10 6 0 11 -19 13 -42 4 -57 28 -64 28 -7 0
28 6 46 18 55 15 12 12 13 -25 14 -24 0 -43 -4 -43 -10z"/>
<path d="M1010 515 c0 -30 5 -55 10 -55 6 0 10 25 10 55 0 30 -4 55 -10 55 -5
0 -10 -25 -10 -55z"/>
<path d="M1050 560 c0 -5 5 -10 10 -10 6 0 10 -20 10 -45 0 -25 5 -45 10 -45
6 0 10 20 10 45 0 33 4 45 15 45 8 0 15 5 15 10 0 6 -16 10 -35 10 -19 0 -35
-4 -35 -10z"/>
<path d="M1130 526 c0 -51 18 -71 55 -62 23 6 25 11 25 56 0 28 -4 50 -10 50
-5 0 -10 -17 -10 -38 0 -21 -3 -42 -7 -45 -13 -13 -33 16 -33 49 0 19 -4 34
-10 34 -5 0 -10 -20 -10 -44z"/>
<path d="M1230 560 c0 -5 4 -10 9 -10 6 0 11 -19 13 -42 4 -59 28 -63 28 -4 0
25 5 46 10 46 6 0 10 5 10 10 0 6 -16 10 -35 10 -19 0 -35 -4 -35 -10z"/>
<path d="M1322 518 c3 -52 4 -53 36 -56 18 -2 32 1 32 7 0 6 -11 11 -25 11
-16 0 -25 6 -25 15 0 8 9 15 20 15 11 0 20 5 20 10 0 6 -9 10 -20 10 -11 0
-20 5 -20 10 0 6 11 10 25 10 14 0 25 5 25 10 0 6 -16 10 -36 10 l-35 0 3 -52z"/>
<path d="M1436 555 c-10 -27 -7 -70 6 -83 16 -16 53 -15 67 2 7 8 11 32 9 53
-3 36 -5 38 -39 41 -26 2 -38 -1 -43 -13z m59 -40 c0 -33 -21 -41 -38 -14 -14
22 -1 51 20 47 13 -2 18 -13 18 -33z"/>
<path d="M1537 563 c-4 -3 -7 -26 -7 -49 0 -46 18 -69 27 -35 3 12 12 21 19
21 8 0 14 5 14 10 0 6 -7 10 -15 10 -8 0 -15 7 -15 15 0 8 9 15 20 15 11 0 20
5 20 10 0 11 -53 14 -63 3z"/>
<path d="M1653 556 c11 -9 17 -27 17 -55 0 -57 24 -50 28 7 2 23 7 42 13 42 5
0 9 5 9 10 0 6 -19 10 -42 10 -38 -1 -41 -2 -25 -14z"/>
<path d="M1737 563 c-12 -11 -8 -78 5 -91 15 -15 58 -16 58 -2 0 6 -9 10 -20
10 -11 0 -20 7 -20 15 0 8 7 15 15 15 8 0 15 5 15 10 0 6 -7 10 -15 10 -8 0
-15 5 -15 10 0 6 9 10 20 10 11 0 20 5 20 10 0 11 -53 14 -63 3z"/>
<path d="M1820 549 c-13 -23 -5 -70 13 -81 17 -11 57 -10 57 1 0 5 -11 12 -25
15 -20 5 -25 13 -25 36 0 25 4 30 25 30 14 0 25 5 25 10 0 20 -59 11 -70 -11z"/>
<path d="M1900 515 c0 -42 3 -55 15 -55 9 0 15 9 15 25 0 16 6 25 15 25 9 0
15 -9 15 -25 0 -14 5 -25 10 -25 6 0 10 25 10 55 0 30 -4 55 -10 55 -5 0 -10
-9 -10 -20 0 -11 -7 -20 -15 -20 -8 0 -15 9 -15 20 0 11 -7 20 -15 20 -12 0
-15 -13 -15 -55z"/>
<path d="M1990 514 c0 -39 4 -54 12 -52 7 3 15 15 18 29 l6 24 18 -27 c10 -15
22 -25 27 -22 12 7 11 104 -1 104 -5 0 -10 -9 -10 -20 0 -11 -4 -20 -10 -20
-5 0 -14 9 -20 20 -6 11 -17 20 -25 20 -11 0 -15 -13 -15 -56z"/>
<path d="M2101 547 c-13 -33 -2 -75 20 -82 49 -16 83 31 60 81 -15 33 -68 34
-80 1z m64 -18 c8 -24 -16 -55 -34 -45 -6 4 -11 20 -11 37 0 22 5 29 19 29 11
0 23 -9 26 -21z"/>
<path d="M2202 518 c3 -52 4 -53 36 -56 18 -2 32 1 32 7 0 6 -11 11 -25 11
-23 0 -25 4 -25 45 0 25 -5 45 -11 45 -6 0 -9 -21 -7 -52z"/>
<path d="M2287 563 c-12 -11 -8 -78 5 -91 18 -18 46 -15 64 7 16 18 17 18 35
0 28 -28 59 -25 59 6 0 14 -4 25 -10 25 -5 0 -10 -7 -10 -15 0 -9 -6 -12 -16
-8 -24 9 -14 57 14 61 32 5 27 22 -8 22 -16 0 -33 -7 -38 -16 -8 -14 -10 -14
-21 0 -13 16 -62 22 -74 9z m58 -34 c8 -24 -16 -55 -34 -45 -6 4 -11 20 -11
37 0 22 5 29 19 29 11 0 23 -9 26 -21z"/>
<path d="M2470 536 c0 -30 4 -35 28 -39 26 -4 26 -4 5 -12 -32 -10 -29 -27 5
-23 25 3 27 7 30 56 2 31 -1 52 -7 52 -6 0 -11 -11 -11 -25 0 -16 -6 -25 -15
-25 -9 0 -15 9 -15 25 0 14 -4 25 -10 25 -5 0 -10 -15 -10 -34z"/>
<path d="M450 495 c0 -19 5 -35 10 -35 6 0 10 16 10 35 0 19 -4 35 -10 35 -5
0 -10 -16 -10 -35z"/>
<path d="M1880 370 c0 -5 5 -10 11 -10 5 0 7 5 4 10 -3 6 -8 10 -11 10 -2 0
-4 -4 -4 -10z"/>
<path d="M992 330 c0 -25 3 -35 5 -22 5 24 23 31 23 8 0 -16 18 -31 27 -23 3
3 -6 17 -20 31 -14 14 -27 31 -30 38 -3 7 -5 -7 -5 -32z"/>
<path d="M1664 356 c-3 -8 -4 -25 -2 -38 2 -18 9 -23 33 -23 20 0 31 5 33 18
2 9 -1 17 -7 17 -6 0 -11 -7 -11 -16 0 -9 -7 -14 -17 -12 -13 3 -18 13 -17 36
2 34 -3 41 -12 18z"/>
<path d="M1710 360 c0 -5 5 -10 11 -10 5 0 7 5 4 10 -3 6 -8 10 -11 10 -2 0
-4 -4 -4 -10z"/>
<path d="M1247 353 c-2 -5 -1 -21 3 -38 l6 -30 5 33 c5 30 -4 53 -14 35z"/>
<path d="M801 336 c-16 -19 -3 -46 23 -46 19 1 20 1 3 11 -12 7 -16 17 -12 30
7 22 2 24 -14 5z"/>
<path d="M830 340 c0 -5 5 -10 10 -10 6 0 10 5 10 10 0 6 -4 10 -10 10 -5 0
-10 -4 -10 -10z"/>
<path d="M867 343 c-10 -9 -9 -41 1 -47 5 -3 9 8 9 24 0 33 -1 33 -10 23z"/>
<path d="M898 320 c3 -21 8 -28 14 -22 12 12 7 44 -8 49 -7 2 -9 -8 -6 -27z"/>
<path d="M1060 320 c0 -16 5 -30 10 -30 6 0 10 11 10 25 0 18 4 23 15 19 8 -4
15 -1 15 5 0 6 -11 11 -25 11 -21 0 -25 -5 -25 -30z"/>
<path d="M1120 335 c-17 -20 -5 -45 22 -45 21 0 21 1 3 14 -11 8 -16 19 -12
30 8 20 3 21 -13 1z"/>
<path d="M1147 331 c-3 -12 -1 -21 3 -21 15 0 23 21 12 32 -6 6 -11 2 -15 -11z"/>
<path d="M1180 340 c0 -5 5 -10 10 -10 6 0 10 5 10 10 0 6 -4 10 -10 10 -5 0
-10 -4 -10 -10z"/>
<path d="M1210 323 c0 -20 -3 -24 -9 -14 -5 7 -14 10 -20 7 -17 -11 -3 -26 25
-26 19 0 24 5 24 24 0 14 -4 28 -10 31 -6 4 -10 -6 -10 -22z"/>
<path d="M1281 336 c-16 -19 -3 -46 22 -46 20 0 20 1 2 14 -11 8 -16 19 -12
30 8 20 3 21 -12 2z"/>
<path d="M1316 342 c2 -3 -1 -11 -7 -19 -8 -9 -8 -13 -1 -13 16 0 26 20 15 30
-6 4 -8 5 -7 2z"/>
<path d="M1370 320 c0 -20 5 -30 15 -30 8 0 18 0 22 -1 4 0 9 4 11 10 2 6 -3
8 -12 5 -12 -5 -16 0 -16 20 0 14 -4 26 -10 26 -5 0 -10 -13 -10 -30z"/>
<path d="M1437 343 c-10 -9 -9 -41 2 -47 5 -3 11 8 13 24 4 29 -1 37 -15 23z"/>
<path d="M1473 320 c0 -16 4 -27 9 -24 4 3 8 14 8 24 0 10 -4 21 -8 24 -5 3
-9 -8 -9 -24z"/>
<path d="M1502 323 c2 -14 8 -28 14 -30 7 -2 9 8 6 27 -5 37 -25 40 -20 3z"/>
<path d="M1540 320 c0 -16 5 -30 10 -30 6 0 10 14 10 30 0 17 -4 30 -10 30 -5
0 -10 -13 -10 -30z"/>
<path d="M1575 320 c0 -16 3 -30 8 -30 4 0 7 9 7 20 0 11 7 20 15 20 8 0 15 5
15 10 0 6 -10 10 -22 10 -19 0 -23 -6 -23 -30z"/>
<path d="M1743 334 c-9 -24 5 -44 29 -43 17 1 18 2 6 6 -19 5 -25 43 -7 43 6
0 9 -7 5 -15 -8 -21 10 -19 20 3 6 14 8 12 14 -13 l8 -30 1 28 c1 16 7 27 15
27 8 0 17 -12 19 -27 4 -26 4 -26 6 4 l1 32 -56 0 c-38 -1 -57 -6 -61 -15z"/>
<path d="M1880 320 c0 -16 5 -30 10 -30 6 0 10 14 10 30 0 17 -4 30 -10 30 -5
0 -10 -13 -10 -30z"/>
<path d="M1910 320 c0 -18 5 -30 13 -30 9 0 12 10 9 30 -2 17 -8 30 -13 30 -5
0 -9 -13 -9 -30z"/>
<path d="M1950 320 c0 -16 5 -30 10 -30 6 0 10 14 10 30 0 17 -4 30 -10 30 -5
0 -10 -13 -10 -30z"/>
<path d="M1987 344 c-5 -9 26 -54 37 -54 3 0 5 11 4 24 -1 14 -6 22 -11 19 -5
-3 -13 0 -17 7 -4 7 -10 8 -13 4z"/>
<path d="M1370 270 c0 -5 5 -10 11 -10 5 0 7 5 4 10 -3 6 -8 10 -11 10 -2 0
-4 -4 -4 -10z"/>
</g>
</svg>
